PathFileType	4	(X/Y/Z)	C:/Users/opensim2020/Desktop/walking_exp_matlab/subject06_walking23_straight_04.trc																																																																																																																																					
DataRate	CameraRate	NumFrames	NumMarkers	Units	OrigDataRate	OrigDataStartFrame	OrigNumFrames																																																																																																																																	
100	100	7	45	mm	100	2338	145																																																																																																																																	
Frame#	Time	LFHD			RFHD			LBHD			RBHD			C7			T10			CLAV			STRN			RBAK			LSHO			LUPA			LELB			LFRM			LWRA			LWRB			LFIN			RSHO			RUPA			RELB			RFRM			RWRA			RWRB			RFIN			LASI			RASI			LPSI			RPSI			LTHI			LKNE			LTIB			LANK			LHEE			LTOE			RTHI			RKNE			RTIB			RANK			RHEE			RTOE			*39			*40			*41			*42			*43			*44		
		X1	Y1	Z1	X2	Y2	Z2	X3	Y3	Z3	X4	Y4	Z4	X5	Y5	Z5	X6	Y6	Z6	X7	Y7	Z7	X8	Y8	Z8	X9	Y9	Z9	X10	Y10	Z10	X11	Y11	Z11	X12	Y12	Z12	X13	Y13	Z13	X14	Y14	Z14	X15	Y15	Z15	X16	Y16	Z16	X17	Y17	Z17	X18	Y18	Z18	X19	Y19	Z19	X20	Y20	Z20	X21	Y21	Z21	X22	Y22	Z22	X23	Y23	Z23	X24	Y24	Z24	X25	Y25	Z25	X26	Y26	Z26	X27	Y27	Z27	X28	Y28	Z28	X29	Y29	Z29	X30	Y30	Z30	X31	Y31	Z31	X32	Y32	Z32	X33	Y33	Z33	X34	Y34	Z34	X35	Y35	Z35	X36	Y36	Z36	X37	Y37	Z37	X38	Y38	Z38	X39	Y39	Z39	X40	Y40	Z40	X41	Y41	Z41	X42	Y42	Z42	X43	Y43	Z43	X44	Y44	Z44	X45	Y45	Z45
																																																																																																																																								
73	0.72	163.95258	1641.81482	899.15253	163.97272	1635.91541	1031.20972	32.83625	1582.50256	900.87225	35.08949	1581.30322	1029.65161	36.92921	1429.43591	958.10419	5.5136	1099.23499	971.48743	148.47273	1352.30261	964.45514	187.01198	1176.60974	958.96051	-39.91949	1258.64368	1031.61548	91.58376	1385.80005	801.56592	94.30188	1191.09009	717.14716	100.38575	1081.65637	695.24353	209.74113	986.55524	683.80603	325.63544	955.95807	742.35144	296.61719	906.53894	701.69482	384.74826	892.49701	707.67908	91.21278	1385.70288	1123.39612	3.26746	1206.36133	1208.11768	-20.55652	1087.41443	1228.18469	-38.91566	969.8028	1253.69434	-12.20102	817.36444	1240.57263	-70.04602	836.35712	1270.95642	-58.11505	752.565	1279.9071	176.71027	937.76782	860.14587	188.82965	948.93622	1082.24097	19.96244	966.46155	899.64398	34.94719	970.95593	1068.80774	71.8853	627.47339	812.86926	43.10244	464.29315	835.57886	-133.96893	273.61755	846.24237	-238.0918	136.39362	890.43927	-278.57947	150.24463	933.58051	-137.32597	32.447	907.49219	206.32823	623.53503	1135.2301	251.1313	510.61264	1100.05713	266.48428	246.22928	1090.41589	290.38812	65.30941	1038.44519	256.78668	42.54416	990.90375	444.27396	37.21052	1045.35779	62.11985	1678.36218	956.72809	NaN	NaN	NaN	NaN	NaN	NaN	NaN	NaN	NaN	NaN	NaN	NaN	NaN	NaN	NaN
74	0.73	176.70641	1642.79492	900.57593	176.60097	1636.88904	1032.56763	45.70766	1583.23706	902.35126	48.0074	1581.7583	1030.89246	50.7072	1430.42712	959.54095	19.40483	1099.79382	971.61609	161.9061	1353.15698	965.64032	200.7308	1177.57593	960.06006	-26.17765	1259.36743	1033.14856	104.81652	1386.56775	802.78583	105.81138	1191.80713	718.72241	111.24257	1082.17542	696.88269	220.5412	986.99377	685.28723	336.32813	956.45898	743.64636	307.39023	907.01447	702.87982	395.92361	893.76715	708.79242	104.96077	1386.29712	1124.70667	17.45839	1206.75183	1209.89478	-5.63285	1087.68347	1229.84302	-23.70431	970.0155	1255.59546	3.01226	817.69305	1242.72595	-54.97602	836.60162	1272.93994	-42.82524	753.01263	1282.37708	191.12201	937.86981	861.4931	203.34448	950.48431	1083.45215	34.76264	966.57745	899.28857	48.76831	972.55182	1068.32629	88.79631	626.55829	813.39667	62.75737	463.06113	834.97003	-120.07382	278.84216	846.36615	-228.51953	144.91849	889.31573	-267.17371	161.06158	932.90466	-136.5667	32.34472	907.78046	220.54324	625.98669	1136.26965	266.58069	513.5979	1100.55371	277.87616	247.77861	1091.89856	292.8472	66.26809	1038.68958	257.75336	43.14616	991.59192	446.65448	35.33904	1044.68079	74.70399	1678.95996	958.01257	NaN	NaN	NaN	NaN	NaN	NaN	NaN	NaN	NaN	NaN	NaN	NaN	NaN	NaN	NaN
75	0.74	189.55112	1643.7749	901.8681	189.33849	1637.84595	1033.88916	58.64538	1583.86438	903.51874	60.90985	1582.59558	1032.1792	64.20331	1431.31946	960.92303	32.95958	1100.80017	971.94574	175.22151	1354.11816	966.76904	214.49318	1178.68909	960.96259	-12.29059	1260.27136	1034.5957	117.97997	1387.75757	804.16449	117.38168	1193.00781	720.37256	122.36769	1083.2428	698.9317	230.79053	987.1994	686.94025	346.54938	956.09521	744.86395	317.28012	906.75751	704.53094	406.00598	893.71692	709.59833	118.52165	1387.26941	1125.8374	32.01044	1207.33411	1211.28552	9.48512	1088.21875	1231.35803	-8.3109	970.56805	1257.36401	18.97135	818.39941	1244.89697	-39.22052	837.12738	1275.0188	-26.65328	753.66693	1284.80786	205.28621	938.30957	862.9679	217.57977	952.76721	1084.42566	49.17742	966.88208	899.02332	62.80832	974.15125	1067.52393	106.44689	625.83936	813.83984	83.71973	462.13531	834.33521	-104.26956	284.54971	846.25061	-217.08586	153.6841	887.93909	-253.16072	172.24529	932.43219	-135.57481	32.40121	907.86621	235.0233	628.76318	1136.8822	281.10321	515.58649	1100.81018	286.28159	248.10114	1093.3103	294.31003	66.40178	1038.08276	258.22418	43.41586	991.80988	447.92786	34.55667	1042.51001	87.43177	1679.7981	959.39771	NaN	NaN	NaN	NaN	NaN	NaN	NaN	NaN	NaN	NaN	NaN	NaN	NaN	NaN	NaN
76	0.75	202.33449	1644.80908	903.22705	202.15057	1638.83997	1035.17712	71.49402	1584.81995	904.87335	73.11408	1583.5636	1033.90686	77.27482	1432.15149	962.25098	46.49722	1101.79614	972.27356	188.60007	1355.23315	967.78101	228.10327	1179.82214	961.76184	1.43662	1261.27637	1035.97156	130.82034	1389.21655	805.5722	129.08675	1194.41003	722.08472	133.51814	1084.65271	701.2771	240.93837	987.27551	688.56683	356.41129	954.9469	745.89868	326.65244	905.63971	705.82654	415.19614	892.33563	710.08594	131.97949	1388.45715	1126.86267	46.67886	1208.15735	1212.58521	24.85285	1088.98901	1232.82361	7.688	971.37183	1259.16418	35.46664	819.21057	1246.98535	-22.75243	837.78076	1277.20862	-9.67696	754.47522	1287.23584	219.34131	938.96814	864.60394	231.51778	955.40234	1085.41614	63.32859	967.39948	899.02765	75.72756	976.19617	1067.44885	125.01807	625.21185	814.20026	105.73027	461.33487	833.9198	-86.54509	290.51578	845.80035	-202.93193	162.27455	885.73505	-237.31415	183.30321	930.7854	-132.25017	33.91512	907.1178	249.40471	630.92383	1137.8501	294.27017	516.72699	1100.6731	292.57645	248.50674	1092.96594	295.40842	67.06192	1037.9707	258.64105	43.8424	991.93317	449.15829	33.66719	1042.4353	100.25715	1680.76855	960.76837	NaN	NaN	NaN	NaN	NaN	NaN	NaN	NaN	NaN	NaN	NaN	NaN	NaN	NaN	NaN
77	0.76	215.04137	1645.87756	904.53021	215.03775	1639.80615	1036.46545	84.23588	1585.8833	906.18164	86.60767	1584.43384	1034.97644	90.33902	1432.74438	963.26031	59.7466	1103.05298	972.79407	201.89612	1356.40161	968.67175	241.6196	1181.00452	962.45789	15.11936	1262.20227	1037.15344	143.63387	1390.69238	806.92029	141.06302	1195.83472	723.76941	144.68764	1086.1488	703.77002	250.63922	987.06891	690.45898	365.91174	953.09662	746.97742	335.24506	904.02826	706.94867	423.50919	889.77582	710.58514	145.4256	1389.70874	1127.75049	61.55252	1208.97876	1213.64575	40.24961	1089.88538	1234.2644	23.91095	972.27765	1260.91138	52.89177	820.35596	1249.13232	-5.38402	838.56659	1279.36572	8.08509	755.27264	1289.63025	233.09882	939.75586	866.16711	245.21471	957.96814	1086.49109	77.18405	968.11932	899.36731	89.85847	977.59332	1067.36426	143.85136	624.48352	814.67175	128.35411	460.55252	833.89087	-66.88206	296.05157	844.78571	-187.13641	170.61824	883.25427	-220.32866	194.46107	928.33826	-126.49384	37.43302	906.68005	262.61703	632.22772	1138.51099	305.47275	516.77368	1100.7738	298.90137	248.78838	1092.83264	296.48267	67.07404	1037.755	258.90842	44.15057	991.80408	449.58304	33.07544	1042.7948	113.03648	1681.79468	962.10388	NaN	NaN	NaN	NaN	NaN	NaN	NaN	NaN	NaN	NaN	NaN	NaN	NaN	NaN	NaN
78	0.77	227.67218	1647.14636	905.74762	227.91486	1640.78845	1037.76563	96.99982	1587.08875	907.4646	99.57304	1585.39221	1035.95837	103.02341	1433.55481	964.68073	73.00653	1104.33789	973.51056	214.97961	1357.49451	969.51727	254.98329	1182.23999	963.02679	28.6474	1263.15857	1038.26196	156.22269	1392.12256	808.15228	152.51999	1197.12756	725.85486	155.62982	1087.54993	706.39044	259.93045	986.46747	692.29291	375.06921	950.56287	747.92365	342.99042	901.8277	708.16315	431.09103	886.07898	710.98578	158.88228	1391.01282	1128.56897	76.21358	1209.98169	1214.95715	55.76075	1090.83655	1235.72559	40.25928	973.23999	1262.6167	70.10715	821.26886	1251.32666	12.43672	839.31189	1281.55688	26.60605	756.08167	1291.87012	246.51334	940.66553	867.53845	257.85526	959.6629	1087.32141	90.57664	968.91351	900.10168	103.44565	979.32324	1067.92456	162.72992	623.84637	815.40875	151.38737	459.80368	834.31982	-45.64756	300.76907	843.68317	-170.0451	179.42937	881.11859	-202.10748	205.72522	925.37909	-118.76997	42.20173	906.24567	274.3465	632.6217	1139.02197	315.57532	516.6463	1101.22119	303.47849	248.7457	1092.71533	296.62164	67.33827	1037.45544	258.82913	44.207	991.60309	449.96698	32.73396	1042.20813	125.8979	1682.89319	963.53357	NaN	NaN	NaN	NaN	NaN	NaN	NaN	NaN	NaN	NaN	NaN	NaN	NaN	NaN	NaN
79	0.78	240.41461	1648.50806	906.99286	240.83754	1641.87891	1038.92163	109.67044	1588.49255	908.76105	112.18375	1586.91785	1037.75061	115.8656	1434.92786	965.83539	86.18439	1105.7179	974.52026	228.00732	1358.80493	970.23907	268.04453	1183.53882	963.53571	41.98757	1264.26624	1039.35022	168.71356	1393.53259	809.18628	164.4388	1198.35559	727.63324	166.39546	1088.74487	708.82861	268.90195	985.41418	693.95667	383.85556	947.45251	748.70892	350.38812	899.43384	709.37994	437.83051	881.38684	711.42645	172.37679	1392.42944	1129.38708	90.93427	1211.00818	1216.35706	71.13573	1091.85632	1237.30615	57.24297	974.18579	1264.60742	89.00667	822.66266	1253.29443	30.84489	839.92627	1283.64551	45.84076	756.96381	1294.19763	259.58014	941.76324	868.44427	271.07584	961.25018	1088.32288	103.532	969.88739	901.13666	116.91156	980.98718	1068.92468	181.41513	623.43408	816.52789	174.65472	459.39032	835.18439	-23.06358	304.54114	843.36841	-151.18594	188.0647	879.12396	-182.11227	216.7567	922.38135	-109.41656	47.73263	904.99048	284.87247	632.31317	1139.44385	324.1564	516.18054	1101.96399	306.01331	248.52785	1092.29114	296.66956	67.48822	1037.26111	258.72568	44.2391	991.48108	450.07898	32.56524	1041.95642	138.67972	1684.18701	964.95709	NaN	NaN	NaN	NaN	NaN	NaN	NaN	NaN	NaN	NaN	NaN	NaN	NaN	NaN	NaN
